<?xml version="1.0" standalone="no"?><!DOCTYPE svg PUBLIC "-//W3C//DTD SVG 1.1//EN" "http://www.w3.org/Graphics/SVG/1.1/DTD/svg11.dtd"><svg t="1735621691371" class="icon" viewBox="0 0 1024 1024" version="1.1" xmlns="http://www.w3.org/2000/svg" p-id="30883" xmlns:xlink="http://www.w3.org/1999/xlink" width="200" height="200"><path d="M124.928 815.616c-22.016 0-40.448-17.92-40.448-40.448V248.32c0-22.016 17.92-40.448 40.448-40.448h773.632c22.016 0 40.448 17.92 40.448 40.448v526.848c0 22.016-17.92 40.448-40.448 40.448H124.928z" fill="#F67E07" p-id="30884"></path><path d="M899.072 179.712H124.928c-37.888 0-68.608 30.72-68.608 68.608v526.848c0 37.888 30.72 68.608 68.608 68.608h773.632c37.888 0 68.608-30.72 68.608-68.608V248.32c0.512-37.376-30.208-68.608-68.096-68.608z m11.776 595.968c0 6.656-5.632 11.776-11.776 11.776H124.928c-6.656 0-11.776-5.632-11.776-11.776v-120.832h56.32c13.312 0 24.576-11.264 24.576-24.576V375.296c0-13.312-11.264-24.576-24.576-24.576h-56.32v-102.4c0-6.656 5.632-11.776 11.776-11.776h773.632c6.656 0 11.776 5.632 11.776 11.776v527.36z" fill="#B16F1D" p-id="30885"></path><path d="M632.832 400.896c-66.56-66.56-175.104-66.56-241.664 0s-66.56 175.104 0 241.664 175.104 66.56 241.664 0c66.56-67.072 66.56-175.104 0-241.664z m-26.624 26.624c47.104 47.104 51.2 121.344 12.288 173.568L432.64 415.232c51.712-38.912 125.952-34.816 173.568 12.288z m-188.416 187.904c-47.104-47.104-51.2-121.344-12.288-173.568l185.856 185.856c-51.712 38.912-125.952 34.816-173.568-12.288z" fill="#FFFFFF" p-id="30886"></path></svg>