<?xml version="1.0" standalone="no"?><!DOCTYPE svg PUBLIC "-//W3C//DTD SVG 1.1//EN" "http://www.w3.org/Graphics/SVG/1.1/DTD/svg11.dtd"><svg t="1735612333887" class="icon" viewBox="0 0 1024 1024" version="1.1" xmlns="http://www.w3.org/2000/svg" p-id="15741" xmlns:xlink="http://www.w3.org/1999/xlink" width="200" height="200"><path d="M312.00299 446.476681l-27.698852 87.388303 53.708226 0" fill="#28a179" p-id="15742"></path><path d="M404.815839 288.051485c0.578168-30.772864 11.031241-46.451962 31.358195-47.037293 21.190625 0 31.7931 15.679098 31.7931 47.037293-0.292666 30.200836-10.744715 45.580105-31.358195 46.165436C415.411151 334.216921 404.815839 318.830489 404.815839 288.051485zM420.059008 288.051485c-0.292666 23.810289 5.225001 35.277458 16.548908 34.406624 11.031241 0.584308 16.399505-10.889001 16.114003-34.406624 0.285502-23.804149-5.227048-35.277458-16.548908-34.406624C425.720961 254.230192 420.34451 265.697361 420.059008 288.051485z" p-id="15743"></path><path d="M478.419184 288.051485c0.578168-30.772864 11.031241-46.451962 31.358195-47.037293 21.190625 0 31.7931 15.679098 31.7931 47.037293-0.292666 30.200836-10.744715 45.580105-31.358195 46.165436C489.014496 334.216921 478.419184 318.830489 478.419184 288.051485zM493.663376 288.051485c-0.292666 23.810289 5.225001 35.277458 16.548908 34.406624 11.031241 0.584308 16.399505-10.889001 16.114003-34.406624 0.285502-23.804149-5.227048-35.277458-16.548908-34.406624C499.324306 254.230192 493.948879 265.697361 493.663376 288.051485z" p-id="15744"></path><path d="M600.366583 285.87389c10.160407 3.777023 15.528672 11.473309 16.114003 23.082718-0.870834 15.971763-11.616572 24.38948-32.229029 25.260314-20.905122-0.585331-31.7931-9.28855-32.664957-26.131147 0.286526-10.738575 5.662977-18.142196 16.114003-22.211884-7.554046-4.355191-11.616572-10.737552-12.193717-19.163455 1.449002-16.257266 10.887978-24.824385 28.307719-25.696242 17.421788 1.163499 27.004027 9.873882 28.745694 26.131147C611.975992 275.278577 607.913467 281.518698 600.366583 285.87389zM584.252581 322.894038c10.45205-0.579191 16.114003-5.227048 16.984836-13.93743-0.292666-11.030218-6.097882-16.692171-17.421788-16.984836-10.745738 0.870834-16.405645 6.247284-16.984836 16.114003C567.701626 317.088822 573.506842 322.022181 584.252581 322.894038zM583.815629 253.644861c-8.132214 0.870834-12.487406 4.940522-13.065574 12.19474 0.285502 9.295714 4.792143 14.086833 13.501502 14.372336 8.417717-0.285502 12.772908-4.790096 13.065574-13.501502C596.732823 258.871909 592.234369 254.515694 583.815629 253.644861z" p-id="15745"></path><path d="M111.525026 367.695407c-30.886451 2.110057-55.67809 68.267826-55.67809 149.573597s24.790616 147.46354 55.67809 149.573597L111.525026 367.695407z" fill="rgba(27,214,111,0.795)" p-id="15746"></path><path d="M909.646556 367.695407c30.886451 2.110057 55.67809 68.267826 55.67809 149.573597s-24.790616 147.46354-55.67809 149.573597L909.646556 367.695407z" fill="#2ab1d3" p-id="15747"></path><path d="M899.716392 721.242582l0-0.530073-0.195451 0.13303L899.520941 307.361273l0.195451 0.135076 0-1.89107c0 0 0.726547-19.818371-2.158153-25.50386-2.483564-4.89345-15.556301-12.961196-15.556301-12.961196L700.682313 141.382031c0 0-10.491958-9.002025-15.219633-10.547217-4.354168-1.422396-19.156292-1.200338-19.156292-1.200338L342.558913 129.634476c0 0-13.068643-0.521886-17.422811 0.900509-4.269233 1.394766-15.399735 9.708106-15.399735 9.708106l-174.992523 128.803551c0 0-8.91095 5.731538-10.637268 9.134031-0.687662 1.354857-1.099031 3.875261-1.344624 6.577812l-0.200568 0 0 2.859118c-0.213871 4.085038-0.134053 7.806803-0.134053 7.806803l0 14.523785 0.134053-0.100284 0 408.513044-0.134053-0.099261 0 5.024433c0 0-0.066515 3.640923 0.134053 7.957229l0 4.059456 0.26913 0c0.308015 3.456728 0.841158 6.77838 1.75497 8.580422 2.441609 4.812609 15.263635 13.827937 15.263635 13.827937l169.957857 125.119649c0 0 10.301623 7.010671 14.550391 8.399297 4.808516 1.571798 20.114107 2.158153 20.114107 2.158153l317.04482 0c0 0 16.059767 1.072425 21.551852-0.721431 4.520967-1.477654 16.911158-10.511401 16.911158-10.511401l183.722348-127.516232c0 0 12.090363-7.294127 14.335497-11.717879C900.488988 738.087225 899.716392 721.242582 899.716392 721.242582zM686.646646 865.874633c-0.302899 0.096191-363.956246 0.808412-364.667443 0.167822L144.016021 734.249827l0-440.400289 177.962158-132.704394c0.712221-0.64059 364.365568-0.950651 364.668467-0.853437l191.987592 132.639926-0.567935 0 0 442.371176 0.23536 0L686.646646 865.874633z" fill="#161616" p-id="15748"></path><path d="M851.843058 718.061123l-0.639566-407.92669c-0.127913-0.037862-171.679058-117.838825-171.679058-117.838825l0.007163-0.115634L330.738703 192.179974c-0.080841 0-0.158612-0.014326-0.23843-0.021489L171.326017 309.852l0.217964 409.769664 158.956292 116.259864c0.079818-0.00614 0.157589-0.021489 0.23843-0.021489L679.530574 835.860039l-0.007163-0.115634L851.843058 718.061123zM705.902198 574.048171c0.692778-6.414083 47.985898-162.293293 47.985898-162.293293l44.864814 0-69.962421 201.435779-48.50676 0-69.052702-201.435779 46.295396 0L705.902198 574.048171zM374.256846 223.822648l264.399809 0c11.396561 0 20.635993 9.239432 20.635993 20.635993l-10.317996 83.83436c0 11.396561-9.239432 20.635993-20.635993 20.635993L384.574842 348.928994c-11.396561 0-20.635993-9.239432-20.635993-20.635993l-10.317996-83.83436C353.620853 233.061057 362.860285 223.822648 374.256846 223.822648zM274.940886 567.026244l-14.824637 46.164413-46.554292 0 73.733305-201.435779 50.457182 0 72.303746 201.435779-46.815235 0-15.08558-46.164413L274.940886 567.026244zM389.544017 800.401456c-24.301476 0-44.002167-19.700691-44.002167-44.002167 0-24.301476 19.700691-44.002167 44.002167-44.002167s44.002167 19.700691 44.002167 44.002167C433.546184 780.700765 413.845493 800.401456 389.544017 800.401456zM447.63711 589.653591c-18.553565-18.030655-27.828812-42.696428-27.828812-73.994248 0-31.730679 10.208503-57.543577 30.625508-77.43972 20.417005-19.897166 47.312562-29.844725 80.690764-29.844725 21.499663 0 40.268122 3.035126 56.308447 9.102309l0 40.704051c-15.60542-9.103332-34.678824-13.654998-57.219189-13.654998-19.421328 0-35.155684 6.329149-47.205115 18.986423-12.051477 12.659321-18.075681 29.346375-18.075681 50.067302 0 21.066805 5.438872 37.495986 16.320711 49.285496 10.878768 11.791557 25.725918 17.686824 44.539402 17.686824 11.184737 0 20.330024-1.734504 27.439956-5.202489L553.2331 533.994943l-40.704051 0 0-34.46086 83.618443 0 0 100.132558c-19.681248 11.358699-43.87016 17.034978-72.564689 17.034978C491.5042 616.702644 466.188628 607.686293 447.63711 589.653591zM603.300402 784.018324c-12.494569 0-22.623253-10.128685-22.623253-22.623253 0-12.494569 10.128685-22.623253 22.623253-22.623253 12.494569 0 22.623253 10.128685 22.623253 22.623253C625.923656 773.889639 615.794971 784.018324 603.300402 784.018324zM641.192408 761.39507c0-12.494569 10.128685-22.623253 22.623253-22.623253 12.494569 0 22.623253 10.128685 22.623253 22.623253 0 12.494569-10.128685 22.623253-22.623253 22.623253C651.321092 784.018324 641.192408 773.889639 641.192408 761.39507z" fill="#18b48d" p-id="15749"></path></svg>